<?xml version="1.0" encoding="UTF-8" standalone="no"?>
<!DOCTYPE svg PUBLIC "-//W3C//DTD SVG 1.1//EN" "http://www.w3.org/Graphics/SVG/1.1/DTD/svg11.dtd">
<svg version="1.1" xmlns="http://www.w3.org/2000/svg" xmlns:xlink="http://www.w3.org/1999/xlink" preserveAspectRatio="xMidYMid meet" viewBox="0 0 640 640" width="640" height="640"><defs><path d="M541 296.42C541 418.39 441.97 517.42 320 517.42C198.03 517.42 99 418.39 99 296.42C99 174.45 198.03 75.42 320 75.42C441.97 75.42 541 174.45 541 296.42Z" id="bnOolNWcc"></path><path d="M397.19 266.39C397.19 308.61 362.64 342.89 320.08 342.89C277.53 342.89 242.98 308.61 242.98 266.39C242.98 224.16 277.53 189.88 320.08 189.88C362.64 189.88 397.19 224.16 397.19 266.39Z" id="fsSQSiNsq"></path><path d="M409.12 377.83C420.17 377.83 429.12 386.79 429.12 397.83C429.12 433.59 429.12 520.87 429.12 556.63C429.12 567.67 420.17 576.63 409.12 576.63C369.27 576.63 269.7 576.63 229.84 576.63C218.8 576.63 209.84 567.67 209.84 556.63C209.84 520.87 209.84 433.59 209.84 397.83C209.84 386.79 218.8 377.83 229.84 377.83C269.7 377.83 369.27 377.83 409.12 377.83Z" id="ahypgGU49"></path></defs><g><g><g><g><use xlink:href="#bnOolNWcc" opacity="1" fill-opacity="0" stroke="#ffffff" stroke-width="30" stroke-opacity="1"></use></g></g><g><use xlink:href="#fsSQSiNsq" opacity="1" fill="#ffffff" fill-opacity="1"></use></g><g><use xlink:href="#ahypgGU49" opacity="1" fill="#ffffff" fill-opacity="1"></use></g></g></g></svg>